<?xml version="1.0" encoding="UTF-8" standalone="no"?>
<!-- Created with Inkscape (http://www.inkscape.org/) -->

<svg
   xmlns:dc="http://purl.org/dc/elements/1.1/"
   xmlns:cc="http://creativecommons.org/ns#"
   xmlns:rdf="http://www.w3.org/1999/02/22-rdf-syntax-ns#"
   xmlns:svg="http://www.w3.org/2000/svg"
   xmlns="http://www.w3.org/2000/svg"
   xmlns:xlink="http://www.w3.org/1999/xlink"
   xmlns:sodipodi="http://sodipodi.sourceforge.net/DTD/sodipodi-0.dtd"
   xmlns:inkscape="http://www.inkscape.org/namespaces/inkscape"
   width="744.09448819"
   height="1052.3622047"
   id="svg2"
   sodipodi:version="0.32"
   inkscape:version="0.48.4 r9939"
   sodipodi:docname="cover.svg"
   inkscape:output_extension="org.inkscape.output.svg.inkscape"
   version="1.1">
  <defs
     id="defs4">
    <inkscape:perspective
       sodipodi:type="inkscape:persp3d"
       inkscape:vp_x="0 : 526.18109 : 1"
       inkscape:vp_y="0 : 1000 : 0"
       inkscape:vp_z="744.09448 : 526.18109 : 1"
       inkscape:persp3d-origin="372.04724 : 350.78739 : 1"
       id="perspective17" />
  </defs>
  <sodipodi:namedview
     id="base"
     pagecolor="#ffffff"
     bordercolor="#666666"
     borderopacity="1.0"
     inkscape:pageopacity="0.0"
     inkscape:pageshadow="2"
     inkscape:zoom="0.91561247"
     inkscape:cx="271.89139"
     inkscape:cy="559.15503"
     inkscape:document-units="px"
     inkscape:current-layer="layer1"
     inkscape:window-width="1278"
     inkscape:window-height="996"
     inkscape:window-x="1"
     inkscape:window-y="1"
     showgrid="false"
     inkscape:window-maximized="0" />
  <metadata
     id="metadata7">
    <rdf:RDF>
      <cc:Work
         rdf:about="">
        <dc:format>image/svg+xml</dc:format>
        <dc:type
           rdf:resource="http://purl.org/dc/dcmitype/StillImage" />
      </cc:Work>
    </rdf:RDF>
  </metadata>
  <g
     inkscape:label="Layer 1"
     inkscape:groupmode="layer"
     id="layer1">
    <image
       sodipodi:absref="/home/bcrowell/Documents/writing/books/calc/ch00/figs/bridge.jpg"
       xlink:href="bridge.jpg"
       y="82.266708"
       x="108.17402"
       width="540.00000"
       height="818.56427"
       id="image1355" />
    <path
       style="fill:#ffffff;fill-opacity:1.0000000;fill-rule:nonzero;stroke:none;stroke-width:1.0000000pt;stroke-linecap:butt;stroke-linejoin:miter;stroke-opacity:1.0000000"
       id="path2816"
       d="M 212.32238,470.56551 C 216.34240,487.03783 224.23640,502.39523 230.29686,518.23271 C 243.67680,547.02599 253.49716,577.49192 267.26884,606.08089 C 282.33291,639.76507 311.09664,662.21729 346.12801,671.32814 C 393.81326,682.18566 440.58934,669.99793 485.28115,653.28250 C 531.98691,634.23497 578.34272,614.38331 625.12248,595.52109 C 632.88801,592.34137 640.67157,589.20903 648.47904,586.13648 L 633.57159,597.95420 C 625.95885,600.83707 618.37030,603.78316 610.83733,606.87456 C 564.10925,625.48894 518.02406,645.64029 471.32409,664.32100 C 426.22575,681.11528 378.87421,693.16056 330.84889,681.96484 C 295.33732,672.50558 266.05131,649.78863 251.10678,615.35590 C 237.58396,586.63441 226.85817,556.54401 213.25003,527.84769 C 206.92091,511.85055 199.80156,496.19000 194.04197,479.98572 L 212.32238,470.56551 z " />
    <path
       style="fill:#ffffff;fill-opacity:1.0000000;fill-rule:nonzero;stroke:none;stroke-width:1.0000000pt;stroke-linecap:butt;stroke-linejoin:miter;stroke-opacity:1.0000000"
       id="path2818"
       d="M 189.49290,513.06635 C 183.29790,614.49262 183.38499,716.21709 184.91023,817.78907 C 185.04511,823.57345 185.18000,829.35784 185.31489,835.14222 L 170.52363,842.67730 C 170.66767,836.75055 170.81170,830.82381 170.95573,824.89707 C 172.69007,724.14325 174.15505,623.20539 170.97522,522.50157 L 189.49290,513.06635 z " />
    <path
       style="fill:#ffffff;fill-opacity:1.0000000;fill-rule:nonzero;stroke:none;stroke-width:1.0000000pt;stroke-linecap:butt;stroke-linejoin:miter;stroke-opacity:1.0000000"
       id="path2820"
       d="M 191.34865,849.97621 C 275.88625,817.28904 357.70548,776.14219 437.04676,731.71441 C 496.55365,695.56016 558.91658,664.81751 622.27824,636.13398 L 605.49620,649.43524 C 542.86401,676.83040 481.83314,707.53592 423.24846,742.85823 C 341.62394,788.58024 257.96001,830.91083 170.81247,864.89660 L 191.34865,849.97621 z " />
    <path
       style="fill:#ffffff;fill-opacity:1.0000000;fill-rule:nonzero;stroke:none;stroke-width:1.0000000pt;stroke-linecap:butt;stroke-linejoin:miter;stroke-opacity:1.0000000"
       id="path2828"
       d="M 125.37396,561.94725 C 128.38426,572.26028 132.05691,582.61172 138.29025,591.51450 C 155.99144,598.82090 127.09327,613.31623 141.10499,593.12850 C 146.09109,586.46920 149.65864,579.14799 150.13800,570.83290 C 164.89927,537.92226 163.51291,572.50970 164.18546,583.01448 C 165.36272,602.99787 171.34943,622.81049 170.34882,642.89681 C 166.82201,662.19725 141.84023,669.27802 124.63118,666.56258 L 135.13779,659.17870 C 154.12606,662.20528 153.21228,664.32604 158.86945,648.64267 C 160.75133,628.57216 154.07321,608.83479 152.79718,588.91292 C 151.68696,572.88455 147.57756,568.28061 162.50368,559.90814 C 163.92441,559.11121 160.48207,565.02779 162.09173,564.77769 C 161.84787,573.40383 158.10924,581.05230 152.99595,587.94353 C 147.27057,596.41838 135.23509,609.77659 126.93851,598.25658 C 121.42306,589.91297 116.75586,578.04995 114.33506,569.96748 L 125.37396,561.94725 z " />
    <g
       id="g2834"
       transform="matrix(0.521737,-0.193400,0.174407,0.578551,524.6218,505.3936)"
       style="fill:#fefefe;fill-opacity:1.0000000">
      <path
         d="M -144.50825,324.50009 C -139.59228,322.19440 -133.87801,319.71752 -128.29346,321.88594 C -105.94041,341.71921 -89.467411,366.83705 -74.657703,392.48079 C -67.038512,408.59075 -56.919133,410.62344 -39.785051,411.92805 L -56.546371,423.90426 C -74.563570,422.41771 -85.428255,420.32921 -92.805037,402.91705 C -106.49119,377.22902 -122.39992,351.40077 -146.17908,333.83094 C -151.71001,333.78392 -156.99141,336.09732 -162.28456,337.41533 L -144.50825,324.50009 z "
         id="path2830"
         style="fill:#fefefe;fill-opacity:1.0000000;fill-rule:nonzero;stroke:none;stroke-width:1.0000000pt;stroke-linecap:butt;stroke-linejoin:miter;stroke-opacity:1.0000000" />
      <path
         d="M -49.247344,338.63392 C -43.016314,335.21109 -36.833018,331.69989 -30.554255,328.36542 C -25.527009,325.69560 -39.844399,334.95317 -44.641136,338.01788 C -53.468556,343.65785 -71.044786,353.44679 -76.397241,356.40502 C -115.39180,377.95677 -87.262008,359.98333 -112.61733,375.46413 C -125.29027,382.90818 -137.14384,391.60921 -149.20136,399.98304 L -168.23527,407.45402 C -155.85918,399.15171 -143.85071,390.28932 -131.07169,382.60042 C -71.881679,346.43803 -77.156991,354.70730 -31.471034,325.71867 L -49.247344,338.63392 z "
         id="path2832"
         style="fill:#fefefe;fill-opacity:1.0000000;fill-rule:nonzero;stroke:none;stroke-width:1.0000000pt;stroke-linecap:butt;stroke-linejoin:miter;stroke-opacity:1.0000000" />
    </g>
    <text
       xml:space="preserve"
       style="font-size:10px;font-style:normal;font-variant:normal;font-weight:bold;font-stretch:normal;text-indent:0;text-align:start;text-decoration:none;line-height:125%;letter-spacing:0px;word-spacing:0px;text-transform:none;direction:ltr;block-progression:tb;writing-mode:lr-tb;text-anchor:start;baseline-shift:baseline;color:#000000;fill:#aa8647;fill-opacity:1;fill-rule:nonzero;stroke:none;stroke-width:1.24999988px;marker:none;visibility:visible;display:inline;overflow:visible;enable-background:accumulate;font-family:Liberation Sans;-inkscape-font-specification:Liberation Sans Bold"
       x="389.90295"
       y="628.73358"
       id="text2993"
       sodipodi:linespacing="125%"
       transform="matrix(1,-0.36396871,0,1,0,0)"><tspan
         sodipodi:role="line"
         id="tspan2995"
         x="389.90295"
         y="628.73358"
         style="font-size:48px;font-weight:bold;fill:#aa8647;fill-opacity:1;-inkscape-font-specification:Liberation Sans Bold">Brief</tspan><tspan
         sodipodi:role="line"
         x="389.90295"
         y="688.73358"
         id="tspan2997"
         style="font-size:48px;font-weight:bold;fill:#aa8647;fill-opacity:1;-inkscape-font-specification:Liberation Sans Bold">Calculus</tspan><tspan
         sodipodi:role="line"
         x="389.90295"
         y="725.11572"
         id="tspan2999"
         style="font-size:24px;font-weight:bold;fill:#aa8647;fill-opacity:1;-inkscape-font-specification:Liberation Sans Bold">Crowell</tspan></text>
  </g>
</svg>
