<?xml version="1.0" encoding="iso-8859-1"?>
<!-- Generator: Adobe Illustrator 11 Build 196, SVG Export Plug-In . SVG Version: 6.0.0 Build 78)  -->
<!DOCTYPE svg PUBLIC "-//W3C//DTD SVG 1.0//EN"    "http://www.w3.org/TR/2001/REC-SVG-20010904/DTD/svg10.dtd" [
	<!ENTITY ns_flows "http://ns.adobe.com/Flows/1.0/">
	<!ENTITY ns_svg "http://www.w3.org/2000/svg">
	<!ENTITY ns_xlink "http://www.w3.org/1999/xlink">
]>
<svg  
	 width="102.152" height="20.181" viewBox="0 0 102.152 20.181" style="overflow:visible;enable-background:new 0 0 102.152 20.181"
	 xml:space="preserve">
	<style type="text/css">
	
	</style>
	<g id="Layer_1">
		<g>
			<path style="fill:#DCDCDC;" d="M8.392,4.4l-0.23,0.115v14.337l0.23,0.044c4.003,0,7.248-3.245,7.248-7.248
				C15.64,7.645,12.395,4.4,8.392,4.4z"/>
			
				<radialGradient id="XMLID_9_" cx="-244.6316" cy="-199.52" r="1.0623" fx="-244.6316" fy="-199.52" gradientTransform="matrix(1.17 0 0 1.17 296.548 241.3381)" gradientUnits="userSpaceOnUse">
				<stop  offset="0" style="stop-color:#C5C5C5"/>
				<stop  offset="0.378" style="stop-color:#C7C7C7"/>
				<stop  offset="0.6497" style="stop-color:#CDCDCD"/>
				<stop  offset="0.8875" style="stop-color:#D6D6D6"/>
				<stop  offset="1" style="stop-color:#DCDCDC"/>
				<midPointStop  offset="0" style="stop-color:#C5C5C5"/>
				<midPointStop  offset="0.77" style="stop-color:#C5C5C5"/>
				<midPointStop  offset="1" style="stop-color:#DCDCDC"/>
			</radialGradient>
			<ellipse style="fill:url(#XMLID_9_);" cx="10.308" cy="7.878" rx="1.172" ry="1.31"/> 
			
				<radialGradient id="XMLID_10_" cx="-243.0898" cy="-197.3535" r="1.385" fx="-243.0898" fy="-197.3535" gradientTransform="matrix(1.17 0 0 1.17 296.7023 240.0114)" gradientUnits="userSpaceOnUse">
				<stop  offset="0" style="stop-color:#C5C5C5"/>
				<stop  offset="0.378" style="stop-color:#C7C7C7"/>
				<stop  offset="0.6497" style="stop-color:#CDCDCD"/>
				<stop  offset="0.8875" style="stop-color:#D6D6D6"/>
				<stop  offset="1" style="stop-color:#DCDCDC"/>
				<midPointStop  offset="0" style="stop-color:#C5C5C5"/>
				<midPointStop  offset="0.77" style="stop-color:#C5C5C5"/>
				<midPointStop  offset="1" style="stop-color:#DCDCDC"/>
			</radialGradient>
			<ellipse style="fill:url(#XMLID_10_);" cx="12.267" cy="9.087" rx="1.654" ry="1.586"/> 
			
				<radialGradient id="XMLID_11_" cx="-240.8816" cy="-195.4785" r="0.8549" fx="-240.8816" fy="-195.4785" gradientTransform="matrix(1.2 0 0 1.2 303.2118 245.1738)" gradientUnits="userSpaceOnUse">
				<stop  offset="0" style="stop-color:#C5C5C5"/>
				<stop  offset="0.378" style="stop-color:#C7C7C7"/>
				<stop  offset="0.6497" style="stop-color:#CDCDCD"/>
				<stop  offset="0.8875" style="stop-color:#D6D6D6"/>
				<stop  offset="1" style="stop-color:#DCDCDC"/>
				<midPointStop  offset="0" style="stop-color:#C5C5C5"/>
				<midPointStop  offset="0.77" style="stop-color:#C5C5C5"/>
				<midPointStop  offset="1" style="stop-color:#DCDCDC"/>
			</radialGradient>
			<ellipse style="fill:url(#XMLID_11_);" cx="14.142" cy="10.587" rx="1.061" ry="0.99"/> 
			
				<radialGradient id="XMLID_12_" cx="-240.5066" cy="-198.312" r="0.6718" fx="-240.5066" fy="-198.312" gradientTransform="matrix(0.4104 1.1276 -1.1276 0.4104 -110.7035 360.6915)" gradientUnits="userSpaceOnUse">
				<stop  offset="0" style="stop-color:#C5C5C5"/>
				<stop  offset="0.378" style="stop-color:#C7C7C7"/>
				<stop  offset="0.6497" style="stop-color:#CDCDCD"/>
				<stop  offset="0.8875" style="stop-color:#D6D6D6"/>
				<stop  offset="1" style="stop-color:#DCDCDC"/>
				<midPointStop  offset="0" style="stop-color:#C5C5C5"/>
				<midPointStop  offset="0.77" style="stop-color:#C5C5C5"/>
				<midPointStop  offset="1" style="stop-color:#DCDCDC"/>
			</radialGradient>
			<path style="fill:url(#XMLID_12_);" d="M13.735,8.488c0.187,0.514,0.577,0.844,0.87,0.737s0.38-0.61,0.193-1.124
				s-0.577-0.844-0.87-0.737S13.548,7.975,13.735,8.488z"/>
			
				<radialGradient id="XMLID_13_" cx="-260.3816" cy="-194.812" r="0.3254" fx="-260.3816" fy="-194.812" gradientTransform="matrix(1.3 0 0 1.3 350.7916 264.4546)" gradientUnits="userSpaceOnUse">
				<stop  offset="0" style="stop-color:#C5C5C5"/>
				<stop  offset="0.378" style="stop-color:#C7C7C7"/>
				<stop  offset="0.6497" style="stop-color:#CDCDCD"/>
				<stop  offset="0.8875" style="stop-color:#D6D6D6"/>
				<stop  offset="1" style="stop-color:#DCDCDC"/>
				<midPointStop  offset="0" style="stop-color:#C5C5C5"/>
				<midPointStop  offset="0.77" style="stop-color:#C5C5C5"/>
				<midPointStop  offset="1" style="stop-color:#DCDCDC"/>
			</radialGradient>
			<ellipse style="fill:url(#XMLID_13_);" cx="12.308" cy="11.212" rx="0.383" ry="0.46"/> 
			
				<radialGradient id="XMLID_14_" cx="-263.4648" cy="-196.77" r="0.7095" fx="-263.4648" fy="-196.77" gradientTransform="matrix(1.4 0 0 1.4 378.1003 284.7563)" gradientUnits="userSpaceOnUse">
				<stop  offset="0" style="stop-color:#C5C5C5"/>
				<stop  offset="0.378" style="stop-color:#C7C7C7"/>
				<stop  offset="0.6497" style="stop-color:#CDCDCD"/>
				<stop  offset="0.8875" style="stop-color:#D6D6D6"/>
				<stop  offset="1" style="stop-color:#DCDCDC"/>
				<midPointStop  offset="0" style="stop-color:#C5C5C5"/>
				<midPointStop  offset="0.77" style="stop-color:#C5C5C5"/>
				<midPointStop  offset="1" style="stop-color:#DCDCDC"/>
			</radialGradient>
			<ellipse style="fill:url(#XMLID_14_);" cx="9.225" cy="9.253" rx="1.072" ry="0.907"/> 
			
				<radialGradient id="XMLID_15_" cx="-264.1313" cy="-195.7285" r="0.5606" fx="-264.1313" fy="-195.7285" gradientTransform="matrix(1 0 0 1 272.6895 206.0234)" gradientUnits="userSpaceOnUse">
				<stop  offset="0" style="stop-color:#C5C5C5"/>
				<stop  offset="0.378" style="stop-color:#C7C7C7"/>
				<stop  offset="0.6497" style="stop-color:#CDCDCD"/>
				<stop  offset="0.8875" style="stop-color:#D6D6D6"/>
				<stop  offset="1" style="stop-color:#DCDCDC"/>
				<midPointStop  offset="0" style="stop-color:#C5C5C5"/>
				<midPointStop  offset="0.77" style="stop-color:#C5C5C5"/>
				<midPointStop  offset="1" style="stop-color:#DCDCDC"/>
			</radialGradient>
			<ellipse style="fill:url(#XMLID_15_);" cx="8.558" cy="10.295" rx="0.53" ry="0.589"/> 
			
				<radialGradient id="XMLID_16_" cx="-264.6731" cy="-194.562" r="5.9628" fx="-264.6731" fy="-194.562" gradientTransform="matrix(1 0 0 1 271.1895 203.2734)" gradientUnits="userSpaceOnUse">
				<stop  offset="0" style="stop-color:#FFFFFF"/>
				<stop  offset="0.0042" style="stop-color:#FEFEFE"/>
				<stop  offset="0.1153" style="stop-color:#EDEDED"/>
				<stop  offset="0.235" style="stop-color:#DFDFDF"/>
				<stop  offset="0.3673" style="stop-color:#D3D3D3"/>
				<stop  offset="0.5169" style="stop-color:#CACACA"/>
				<stop  offset="0.6983" style="stop-color:#C5C5C5"/>
				<stop  offset="1" style="stop-color:#C3C3C3"/>
				<midPointStop  offset="0" style="stop-color:#FFFFFF"/>
				<midPointStop  offset="0.2" style="stop-color:#FFFFFF"/>
				<midPointStop  offset="1" style="stop-color:#C3C3C3"/>
			</radialGradient>
			<path style="fill:url(#XMLID_16_);" d="M8.173,4.369L7.379,4.765c-0.038-0.036-0.08-0.069-0.136-0.076
				c-0.738-0.027-1.34-0.469-2.07-0.613C3.989,3.842,2.751,4.162,1.872,4.975C1.2,5.596,1.048,6.521,0.665,7.33
				C0.329,8.033-0.007,8.76,0.013,9.533c0.023,1.043,0.199,2.098,0.68,3.055c0.238,0.484,0.574,0.902,0.852,1.359
				c0.238,1.164,0.691,2.246,1.117,3.359c0.223,0.582,0.719,1.016,1.281,1.25c0.398,0.164,0.816-0.074,1.23-0.156
				c0.754-0.145,1.398,0.227,2.102,0.43c0.176,0.051,0.352,0.047,0.527,0.047c0.117,0,0.202-0.089,0.229-0.198l0.143,0.027V4.369z"
				/>
			<path d="M7.267,3.899C6.782,3.934,6.184,3.907,5.833,4.29C5.743,4.395,5.75,4.551,5.856,4.645
				c0.102,0.09,0.258,0.083,0.352-0.023c0.285-0.21,0.699-0.218,1.059-0.223c0.136,0,0.25-0.113,0.25-0.25
				C7.517,4.012,7.403,3.899,7.267,3.899L7.267,3.899z"/>
			<path d="M7.231,4.774c-0.738-0.027-1.339-0.469-2.07-0.613C3.977,3.926,2.739,4.247,1.86,5.059
				C1.188,5.68,1.036,6.606,0.653,7.415C0.317,8.118-0.019,8.844,0,9.618c0.024,1.043,0.199,2.098,0.68,3.055
				c0.238,0.484,0.574,0.902,0.852,1.359c0.239,1.164,0.691,2.246,1.118,3.359c0.222,0.583,0.718,1.016,1.281,1.25
				c0.399,0.164,0.816-0.074,1.23-0.156c0.754-0.145,1.398,0.226,2.102,0.43c0.176,0.051,0.352,0.046,0.527,0.046
				c0.137,0,0.25-0.113,0.25-0.25c0-0.137-0.113-0.25-0.25-0.25c-0.105,0-0.21,0.016-0.309-0.008
				c-0.801-0.203-1.516-0.625-2.363-0.465c-0.34,0.066-0.645,0.262-0.965,0.184c-0.414-0.098-0.757-0.418-0.953-0.801
				c-0.285-0.566-0.438-1.164-0.688-1.742c-0.25-0.574-0.293-1.199-0.535-1.769c-0.227-0.524-0.644-0.941-0.867-1.457
				c-0.445-1.036-0.777-2.161-0.531-3.321c0.25-1.167,0.847-2.109,1.269-3.184c0.066-0.171,0.164-0.332,0.301-0.453
				C2.907,4.77,3.942,4.508,4.922,4.633c0.786,0.098,1.445,0.625,2.254,0.641c0.137,0.012,0.262-0.086,0.278-0.223
				C7.465,4.915,7.368,4.79,7.231,4.774L7.231,4.774z"/>
			<path style="fill:none;stroke:#000000;stroke-width:0.6;" d="M8.392,18.834c4.002,0,7.248-3.245,7.248-7.248
				c0-4.002-3.245-7.248-7.248-7.248"/>
			<line style="fill:none;stroke:#000000;stroke-width:0.6;" x1="8.142" y1="5.211" x2="8.142" y2="17.961"/>
			<path style="fill:none;stroke:#000000;stroke-width:0.5;" d="M7.892,4.649c0.125-0.8,0.449-1.57,0.804-2.308
				C8.844,2.04,8.958,1.728,9.008,1.395L9.04,1.27C9.09,1.188,9.09,1.083,9.04,1L9.004,0.95C8.985,0.915,8.969,0.883,8.95,0.849
				l-0.129-0.18l-0.046,0.39V1.044c0.039-0.008,0.066-0.083,0.117-0.02c0.136-0.02,0.23-0.148,0.21-0.285
				c-0.019-0.136-0.148-0.23-0.285-0.21C8.774,0.536,8.735,0.544,8.692,0.551l-0.18,0.082C8.411,0.696,8.368,0.825,8.411,0.934
				l0.106,0.165l0.004,0.004l0.097,0.164L8.579,1.125L8.517,1.317c0-0.008,0-0.012,0-0.019c-0.024,0.125-0.04,0.25-0.083,0.367
				c-0.387,0.98-0.938,1.929-1.042,2.984c0,0.137,0.113,0.25,0.25,0.25C7.778,4.899,7.892,4.786,7.892,4.649L7.892,4.649z"/>
		</g>
		<g>
			<text transform="matrix(1 0 0 1 22.6602 15.2715)"><tspan x="0" y="0" style="font-family:Bitstream Vera Sans; font-size:9.350000;">Light and Matter</tspan></text>
		</g>
	</g>
</svg>
