<?xml version="1.0" encoding="UTF-8" standalone="no"?>
<!-- Created with Inkscape (http://www.inkscape.org/) -->

<svg
   xmlns:dc="http://purl.org/dc/elements/1.1/"
   xmlns:cc="http://creativecommons.org/ns#"
   xmlns:rdf="http://www.w3.org/1999/02/22-rdf-syntax-ns#"
   xmlns:svg="http://www.w3.org/2000/svg"
   xmlns="http://www.w3.org/2000/svg"
   xmlns:xlink="http://www.w3.org/1999/xlink"
   xmlns:sodipodi="http://sodipodi.sourceforge.net/DTD/sodipodi-0.dtd"
   xmlns:inkscape="http://www.inkscape.org/namespaces/inkscape"
   width="1141.2125"
   height="832.5"
   id="svg2"
   sodipodi:version="0.32"
   inkscape:version="0.48.4 r9939"
   sodipodi:docname="lulu-cover.svg"
   inkscape:output_extension="org.inkscape.output.svg.inkscape"
   version="1.0">
  <defs
     id="defs4">
    <inkscape:perspective
       sodipodi:type="inkscape:persp3d"
       inkscape:vp_x="0 : 416.25 : 1"
       inkscape:vp_y="0 : 1000 : 0"
       inkscape:vp_z="1124.875 : 416.25 : 1"
       inkscape:persp3d-origin="562.4375 : 277.5 : 1"
       id="perspective30" />
  </defs>
  <sodipodi:namedview
     id="base"
     pagecolor="#ffffff"
     bordercolor="#666666"
     borderopacity="1.0"
     inkscape:pageopacity="0.0"
     inkscape:pageshadow="2"
     inkscape:zoom="0.24669531"
     inkscape:cx="1138.3771"
     inkscape:cy="11.065634"
     inkscape:document-units="px"
     inkscape:current-layer="layer1"
     inkscape:window-width="1278"
     inkscape:window-height="996"
     inkscape:window-x="1"
     inkscape:window-y="1"
     showgrid="false"
     units="pt"
     inkscape:window-maximized="0" />
  <metadata
     id="metadata7">
    <rdf:RDF>
      <cc:Work
         rdf:about="">
        <dc:format>image/svg+xml</dc:format>
        <dc:type
           rdf:resource="http://purl.org/dc/dcmitype/StillImage" />
      </cc:Work>
    </rdf:RDF>
  </metadata>
  <g
     inkscape:label="Layer 1"
     inkscape:groupmode="layer"
     id="layer1">
    <rect
       style="fill:#000000;fill-opacity:1;fill-rule:evenodd;stroke:none"
       id="rect2215"
       width="1141.2125"
       height="832.5"
       x="0"
       y="-0.00063442066" />
    <image
       sodipodi:absref="/home/bcrowell/Documents/writing/books/calc/ch00/figs/bridge.jpg"
       xlink:href="bridge.jpg"
       y="0.027512208"
       x="601.10938"
       width="540"
       height="818.56427"
       id="image1355" />
    <path
       style="fill:#ffffff;fill-opacity:1;fill-rule:nonzero;stroke:none"
       id="path2816"
       d="m 705.25772,388.32631 c 4.02002,16.47232 11.91402,31.82972 17.97448,47.6672 13.37994,28.79328 23.2003,59.25921 36.97198,87.84818 15.06407,33.68418 43.8278,56.1364 78.85917,65.24725 47.68525,10.85752 94.46133,-1.33021 139.15314,-18.04564 46.70561,-19.04753 93.06141,-38.89919 139.84121,-57.76141 7.7655,-3.17972 15.5491,-6.31206 23.3566,-9.38461 l -14.9075,11.81772 c -7.6127,2.88287 -15.2013,5.82896 -22.7342,8.92036 -46.7281,18.61438 -92.8133,38.76573 -139.51317,57.44644 -45.09834,16.79428 -92.44988,28.83956 -140.4752,17.64384 -35.51157,-9.45926 -64.79758,-32.17621 -79.74211,-66.60894 -13.52282,-28.72149 -24.24861,-58.81189 -37.85675,-87.50821 -6.32912,-15.99714 -13.44847,-31.65769 -19.20806,-47.86197 l 18.28041,-9.42021 z"
       inkscape:connector-curvature="0" />
    <path
       style="fill:#ffffff;fill-opacity:1;fill-rule:nonzero;stroke:none"
       id="path2818"
       d="m 682.42824,430.82715 c -6.195,101.42627 -6.10791,203.15074 -4.58267,304.72272 0.13488,5.78438 0.26977,11.56877 0.40466,17.35315 l -14.79126,7.53508 c 0.14404,-5.92675 0.28807,-11.85349 0.4321,-17.78023 1.73434,-100.75382 3.19932,-201.69168 0.0195,-302.3955 l 18.51768,-9.43522 z"
       inkscape:connector-curvature="0" />
    <path
       style="fill:#ffffff;fill-opacity:1;fill-rule:nonzero;stroke:none"
       id="path2820"
       d="m 684.28399,767.73701 c 84.5376,-32.68717 166.35683,-73.83402 245.69811,-118.2618 59.50689,-36.15425 121.8697,-66.8969 185.2314,-95.58043 l -16.7821,13.30126 c -62.6322,27.39516 -123.66292,58.10068 -182.2476,93.42299 -81.62452,45.72201 -165.28845,88.0526 -252.43599,122.03837 l 20.53618,-14.92039 z"
       inkscape:connector-curvature="0" />
    <path
       style="fill:#ffffff;fill-opacity:1;fill-rule:nonzero;stroke:none"
       id="path2828"
       d="m 618.3093,479.70805 c 3.0103,10.31303 6.68295,20.66447 12.91629,29.56725 17.70119,7.3064 -11.19698,21.80173 2.81474,1.614 4.9861,-6.6593 8.55365,-13.98051 9.03301,-22.2956 14.76127,-32.91064 13.37491,1.6768 14.04746,12.18158 1.17726,19.98339 7.16397,39.79601 6.16336,59.88233 -3.52681,19.30044 -28.50859,26.38121 -45.71764,23.66577 l 10.50661,-7.38388 c 18.98827,3.02658 18.07449,5.14734 23.73166,-10.53603 1.88188,-20.07051 -4.79624,-39.80788 -6.07227,-59.72975 -1.11022,-16.02837 -5.21962,-20.63231 9.7065,-29.00478 1.42073,-0.79693 -2.02161,5.11965 -0.41195,4.86955 -0.24386,8.62614 -3.98249,16.27461 -9.09578,23.16584 -5.72538,8.47485 -17.76086,21.83306 -26.05744,10.31305 -5.51545,-8.34361 -10.18265,-20.20663 -12.60345,-28.2891 l 11.0389,-8.02023 z"
       inkscape:connector-curvature="0" />
    <g
       id="g2834"
       transform="matrix(0.521737,-0.1934,0.174407,0.578551,1017.5569,423.1544)"
       style="fill:#fefefe;fill-opacity:1">
      <path
         d="m -144.50825,324.50009 c 4.91597,-2.30569 10.63024,-4.78257 16.21479,-2.61415 22.35305,19.83327 38.826049,44.95111 53.635757,70.59485 7.619191,16.10996 17.73857,18.14265 34.872652,19.44726 l -16.76132,11.97621 c -18.017199,-1.48655 -28.881884,-3.57505 -36.258666,-20.98721 -13.686153,-25.68803 -29.594883,-51.51628 -53.374043,-69.08611 -5.53093,-0.047 -10.81233,2.26638 -16.10548,3.58439 l 17.77631,-12.91524 z"
         id="path2830"
         style="fill:#fefefe;fill-opacity:1;fill-rule:nonzero;stroke:none"
         inkscape:connector-curvature="0" />
      <path
         d="m -49.247344,338.63392 c 6.23103,-3.42283 12.414326,-6.93403 18.693089,-10.2685 5.027246,-2.66982 -9.290144,6.58775 -14.086881,9.65246 -8.82742,5.63997 -26.40365,15.42891 -31.756105,18.38714 -38.994559,21.55175 -10.864767,3.57831 -36.220089,19.05911 -12.67294,7.44405 -24.52651,16.14508 -36.58403,24.51891 l -19.03391,7.47098 c 12.37609,-8.30231 24.38456,-17.1647 37.16358,-24.8536 59.190011,-36.16239 53.914699,-27.89312 99.600656,-56.88175 l -17.77631,12.91525 z"
         id="path2832"
         style="fill:#fefefe;fill-opacity:1;fill-rule:nonzero;stroke:none"
         inkscape:connector-curvature="0" />
    </g>
    <text
       xml:space="preserve"
       style="font-size:20px;font-style:oblique;font-variant:normal;font-weight:normal;font-stretch:normal;text-align:start;line-height:125%;writing-mode:lr-tb;text-anchor:start;fill:#ffffff;fill-opacity:1;stroke:none;font-family:Bitstream Vera Sans"
       x="183.29768"
       y="-563.64832"
       id="text2944"
       sodipodi:linespacing="125%"
       transform="matrix(0,1,-1,0,0,0)"><tspan
         sodipodi:role="line"
         id="tspan2946"
         x="183.29768"
         y="-563.64832">Calculus</tspan></text>
    <text
       xml:space="preserve"
       style="font-size:20px;font-style:normal;font-variant:normal;font-weight:normal;font-stretch:normal;text-align:start;line-height:125%;writing-mode:lr-tb;text-anchor:start;fill:#ffffff;fill-opacity:1;stroke:none;font-family:Bitstream Vera Sans"
       x="305.41663"
       y="-563.64832"
       id="text2950"
       sodipodi:linespacing="125%"
       transform="matrix(0,1,-1,0,0,0)"><tspan
         sodipodi:role="line"
         id="tspan2952"
         x="305.41663"
         y="-563.64832">Crowell</tspan></text>
    <rect
       style="fill:#000000;fill-opacity:1;fill-rule:evenodd;stroke:none"
       id="rect2960"
       width="743.81976"
       height="43.958244"
       x="391.03238"
       y="783.83234" />
    <rect
       style="fill:#000000;fill-opacity:1;fill-rule:evenodd;stroke:none"
       id="rect1320"
       width="0.91926038"
       height="821.93872"
       x="600.7688"
       y="0.038299423" />
    <text
       xml:space="preserve"
       style="font-size:12px;font-style:normal;font-variant:normal;font-weight:normal;font-stretch:normal;text-align:start;line-height:125%;writing-mode:lr-tb;text-anchor:start;fill:#ffffff;fill-opacity:1;stroke:none;font-family:Bitstream Vera Sans"
       x="205.34961"
       y="261.23401"
       id="text2058"
       sodipodi:linespacing="125%"><tspan
         sodipodi:role="line"
         x="205.34961"
         y="261.23401"
         id="tspan2062">This book can be downloaded</tspan></text>
    <text
       xml:space="preserve"
       style="font-size:12px;font-style:normal;font-variant:normal;font-weight:normal;font-stretch:normal;text-align:start;line-height:125%;writing-mode:lr-tb;text-anchor:start;fill:#ffffff;fill-opacity:1;stroke:none;font-family:Bitstream Vera Sans"
       x="205.34961"
       y="285.95999"
       id="text2064"
       sodipodi:linespacing="125%"><tspan
         sodipodi:role="line"
         id="tspan2066"
         x="205.34961"
         y="285.95999">for free, or bought in print, at</tspan></text>
    <text
       xml:space="preserve"
       style="font-size:12px;font-style:normal;font-variant:normal;font-weight:normal;font-stretch:normal;text-align:start;line-height:125%;writing-mode:lr-tb;text-anchor:start;fill:#ffffff;fill-opacity:1;stroke:none;font-family:Bitstream Vera Sans"
       x="205.39362"
       y="310.68594"
       id="text2068"
       sodipodi:linespacing="125%"><tspan
         sodipodi:role="line"
         id="tspan2070"
         x="205.39362"
         y="310.68594">www.lightandmatter.com/calc.</tspan></text>
    <text
       xml:space="preserve"
       style="font-size:10px;font-style:normal;font-variant:normal;font-weight:bold;font-stretch:normal;text-indent:0;text-align:start;text-decoration:none;line-height:125%;letter-spacing:0px;word-spacing:0px;text-transform:none;direction:ltr;block-progression:tb;writing-mode:lr-tb;text-anchor:start;baseline-shift:baseline;color:#000000;fill:#aa8647;fill-opacity:1;fill-rule:nonzero;stroke:none;stroke-width:1.24999988px;marker:none;visibility:visible;display:inline;overflow:visible;enable-background:accumulate;font-family:Liberation Sans;-inkscape-font-specification:Liberation Sans Bold"
       x="893.55365"
       y="713.17242"
       id="text2993"
       sodipodi:linespacing="125%"
       transform="matrix(1,-0.36396871,0,1,0,0)"><tspan
         sodipodi:role="line"
         id="tspan2995"
         x="893.55365"
         y="713.17242"
         style="font-size:48px;font-weight:bold;fill:#aa8647;fill-opacity:1;-inkscape-font-specification:Liberation Sans Bold">Brief</tspan><tspan
         sodipodi:role="line"
         x="893.55365"
         y="773.17242"
         id="tspan2997"
         style="font-size:48px;font-weight:bold;fill:#aa8647;fill-opacity:1;-inkscape-font-specification:Liberation Sans Bold">Calculus</tspan><tspan
         sodipodi:role="line"
         x="893.55365"
         y="809.55457"
         id="tspan2999"
         style="font-size:24px;font-weight:bold;fill:#aa8647;fill-opacity:1;-inkscape-font-specification:Liberation Sans Bold">Crowell</tspan></text>
  </g>
</svg>
